<svg preserveAspectRatio="none" width="100%" height="100%" overflow="visible" style="display: block;" viewBox="0 0 32 32" fill="none" xmlns="http://www.w3.org/2000/svg">
<g id="document-text">
<path id="Vector" d="M20 30.3333H12C4.76 30.3333 1.66667 27.24 1.66667 20V12C1.66667 4.76 4.76 1.66667 12 1.66667H18.6667C19.2133 1.66667 19.6667 2.12 19.6667 2.66667C19.6667 3.21333 19.2133 3.66667 18.6667 3.66667H12C5.85333 3.66667 3.66667 5.85333 3.66667 12V20C3.66667 26.1467 5.85333 28.3333 12 28.3333H20C26.1467 28.3333 28.3333 26.1467 28.3333 20V13.3333C28.3333 12.7867 28.7867 12.3333 29.3333 12.3333C29.88 12.3333 30.3333 12.7867 30.3333 13.3333V20C30.3333 27.24 27.24 30.3333 20 30.3333Z" fill="var(--fill-0, #00B8FF)"/>
<path id="Vector_2" d="M29.3333 14.3333H24C19.44 14.3333 17.6667 12.56 17.6667 8V2.66667C17.6667 2.26667 17.9067 1.89333 18.28 1.74667C18.6533 1.58667 19.08 1.68 19.3733 1.96L30.04 12.6267C30.32 12.9067 30.4133 13.3467 30.2533 13.72C30.0933 14.0933 29.7333 14.3333 29.3333 14.3333ZM19.6667 5.08V8C19.6667 11.44 20.56 12.3333 24 12.3333H26.92L19.6667 5.08Z" fill="var(--fill-0, #00B8FF)"/>
<path id="Vector_3" d="M17.3333 18.3333H9.33333C8.78667 18.3333 8.33333 17.88 8.33333 17.3333C8.33333 16.7867 8.78667 16.3333 9.33333 16.3333H17.3333C17.88 16.3333 18.3333 16.7867 18.3333 17.3333C18.3333 17.88 17.88 18.3333 17.3333 18.3333Z" fill="var(--fill-0, #00B8FF)"/>
<path id="Vector_4" d="M14.6667 23.6667H9.33333C8.78667 23.6667 8.33333 23.2133 8.33333 22.6667C8.33333 22.12 8.78667 21.6667 9.33333 21.6667H14.6667C15.2133 21.6667 15.6667 22.12 15.6667 22.6667C15.6667 23.2133 15.2133 23.6667 14.6667 23.6667Z" fill="var(--fill-0, #00B8FF)"/>
<g id="Vector_5" opacity="0">
</g>
</g>
</svg>
