<svg xmlns="http://www.w3.org/2000/svg" viewBox="0 0 1216 522" font-family="Inter,Arial,sans-serif">
<defs>
  <linearGradient id="logoG" x1="0" y1="0" x2="1" y2="1"><stop offset="0" stop-color="#20F0FF"/><stop offset="1" stop-color="#00B8FF"/></linearGradient>
  <linearGradient id="btnG" x1="0" y1="0" x2="0" y2="1"><stop offset="0" stop-color="#0A55C9"/><stop offset="1" stop-color="#073E91"/></linearGradient>
  <linearGradient id="sideFade" x1="0" y1="0" x2="0" y2="1" stop-opacity="0"><stop offset="0.6" stop-color="#073E91" stop-opacity="0"/><stop offset="1" stop-color="#073E91" stop-opacity="0.18"/></linearGradient>
</defs><rect width="1216" height="522" fill="#010D2A"/>
  <rect x="220" width="996" height="52" fill="#0B1937"/>
  <circle cx="250" cy="26" r="5" fill="#ff5f57"/><circle cx="270" cy="26" r="5" fill="#febc2e"/><circle cx="290" cy="26" r="5" fill="#28c840"/>
  <text x="312" y="31" font-size="13" fill="#B7C7E6" font-family="Inter,Arial,sans-serif">Panel · One-Click Installer — StashrNode</text>
  <text x="1188" y="31" font-size="12" fill="#22c55e" text-anchor="end" font-family="Inter,Arial,sans-serif">● Online</text>
  <rect x="220" y="52" width="996" height="1" fill="#073E91"/><rect width="220" height="522" fill="#0B1937"/>
    <rect width="220" height="522" fill="url(#sideFade)"/>
    <circle cx="28" cy="36" r="12" fill="url(#logoG)"/>
    <text x="48" y="41" font-size="14" font-weight="700" fill="#E0F9FF" font-family="Inter,Arial,sans-serif">Stashr<tspan fill="#00B8FF">Node</tspan></text>
    <rect x="0" y="62" width="220" height="1" fill="#073E91"/>
    <circle cx="24" cy="92" r="3.5" fill="#6476a0"/>
      <text x="42" y="96" font-size="13" fill="#B7C7E6" font-family="Inter,Arial,sans-serif" font-weight="400">Dashboard</text><circle cx="24" cy="132" r="3.5" fill="#6476a0"/>
      <text x="42" y="136" font-size="13" fill="#B7C7E6" font-family="Inter,Arial,sans-serif" font-weight="400">Console</text><circle cx="24" cy="172" r="3.5" fill="#6476a0"/>
      <text x="42" y="176" font-size="13" fill="#B7C7E6" font-family="Inter,Arial,sans-serif" font-weight="400">Files</text><rect x="0" y="194" width="220" height="36" fill="#073E91" opacity="0.55"/><circle cx="24" cy="212" r="3.5" fill="#00B8FF"/>
      <text x="42" y="216" font-size="13" fill="#E0F9FF" font-family="Inter,Arial,sans-serif" font-weight="700">Plugins</text><circle cx="24" cy="252" r="3.5" fill="#6476a0"/>
      <text x="42" y="256" font-size="13" fill="#B7C7E6" font-family="Inter,Arial,sans-serif" font-weight="400">Backups</text><circle cx="24" cy="292" r="3.5" fill="#6476a0"/>
      <text x="42" y="296" font-size="13" fill="#B7C7E6" font-family="Inter,Arial,sans-serif" font-weight="400">Settings</text>
<svg x="220" y="53" width="996" height="469"><text x="36" y="42" font-size="20" font-weight="700" fill="#E0F9FF">One-Click Installer</text>
<text x="36" y="64" font-size="13" fill="#B7C7E6">Install modpacks, plugins and mods in seconds</text>
<rect x="36" y="80" width="500" height="36" rx="8" fill="#010D2A" stroke="#073E91"/>
<text x="52" y="103" font-size="13" fill="#6476a0">Search modpacks…</text>
<rect x="36" y="136" width="296" height="130" rx="10" fill="#0F2148" stroke="#073E91"/>
    <rect x="52" y="152" width="44" height="44" rx="8" fill="#010D2A" stroke="#073E91"/>
    <text x="108" y="172" font-size="14" font-weight="700" fill="#E0F9FF">All the Mods 10</text>
    <text x="108" y="192" font-size="11" fill="#B7C7E6">Forge 1.21 · 420 mods</text>
    <rect x="52" y="220" width="264" height="30" rx="6" fill="url(#btnG)"/><text x="184" y="240" font-size="12" font-weight="700" fill="#E0F9FF" text-anchor="middle">Install</text><rect x="356" y="136" width="296" height="130" rx="10" fill="#0F2148" stroke="#073E91"/>
    <rect x="372" y="152" width="44" height="44" rx="8" fill="#010D2A" stroke="#073E91"/>
    <text x="428" y="172" font-size="14" font-weight="700" fill="#E0F9FF">RLCraft</text>
    <text x="428" y="192" font-size="11" fill="#B7C7E6">Forge 1.12 · 169 mods</text>
    <rect x="372" y="220" width="264" height="30" rx="6" fill="url(#btnG)"/><text x="504" y="240" font-size="12" font-weight="700" fill="#E0F9FF" text-anchor="middle">Install</text><rect x="676" y="136" width="296" height="130" rx="10" fill="#0F2148" stroke="#073E91"/>
    <rect x="692" y="152" width="44" height="44" rx="8" fill="#010D2A" stroke="#073E91"/>
    <text x="748" y="172" font-size="14" font-weight="700" fill="#E0F9FF">Better MC</text>
    <text x="748" y="192" font-size="11" fill="#B7C7E6">Fabric 1.21 · 180 mods</text>
    <rect x="692" y="220" width="264" height="30" rx="6" fill="url(#btnG)"/><text x="824" y="240" font-size="12" font-weight="700" fill="#E0F9FF" text-anchor="middle">Install</text><rect x="36" y="286" width="296" height="130" rx="10" fill="#0F2148" stroke="#073E91"/>
    <rect x="52" y="302" width="44" height="44" rx="8" fill="#010D2A" stroke="#073E91"/>
    <text x="108" y="322" font-size="14" font-weight="700" fill="#E0F9FF">Pixelmon</text>
    <text x="108" y="342" font-size="11" fill="#B7C7E6">Forge 1.16 · 1,300+ mods</text>
    <rect x="52" y="370" width="264" height="30" rx="6" fill="url(#btnG)"/><text x="184" y="390" font-size="12" font-weight="700" fill="#E0F9FF" text-anchor="middle">Install</text><rect x="356" y="286" width="296" height="130" rx="10" fill="#0F2148" stroke="#073E91"/>
    <rect x="372" y="302" width="44" height="44" rx="8" fill="#010D2A" stroke="#073E91"/>
    <text x="428" y="322" font-size="14" font-weight="700" fill="#E0F9FF">Cobblemon</text>
    <text x="428" y="342" font-size="11" fill="#B7C7E6">Fabric 1.21 · 260 mods</text>
    <rect x="372" y="370" width="264" height="30" rx="6" fill="url(#btnG)"/><text x="504" y="390" font-size="12" font-weight="700" fill="#E0F9FF" text-anchor="middle">Install</text><rect x="676" y="286" width="296" height="130" rx="10" fill="#0F2148" stroke="#073E91"/>
    <rect x="692" y="302" width="44" height="44" rx="8" fill="#010D2A" stroke="#073E91"/>
    <text x="748" y="322" font-size="14" font-weight="700" fill="#E0F9FF">Create: Above</text>
    <text x="748" y="342" font-size="11" fill="#B7C7E6">Forge 1.20 · 200 mods</text>
    <rect x="692" y="370" width="264" height="30" rx="6" fill="url(#btnG)"/><text x="824" y="390" font-size="12" font-weight="700" fill="#E0F9FF" text-anchor="middle">Install</text></svg>
</svg>